<svg width="70" height="40" viewBox="0 0 70 40" fill="none" xmlns="http://www.w3.org/2000/svg">
<path d="M1 39L69.5 39" stroke="black" stroke-width="0.835443" stroke-linecap="round"/>
<path d="M25.1077 32.2874C26.5937 32.2874 27.7983 31.0827 27.7983 29.5967C27.7983 28.1108 26.5937 26.9061 25.1077 26.9061C23.6217 26.9061 22.4171 28.1108 22.4171 29.5967C22.4171 31.0827 23.6217 32.2874 25.1077 32.2874Z" fill="#262833"/>
<path d="M43.9421 32.2874C45.4281 32.2874 46.6327 31.0827 46.6327 29.5967C46.6327 28.1108 45.4281 26.9061 43.9421 26.9061C42.4561 26.9061 41.2515 28.1108 41.2515 29.5967C41.2515 31.0827 42.4561 32.2874 43.9421 32.2874Z" fill="#262833"/>
<path d="M48.7179 4.77416C48.5289 4.54298 48.2908 4.35678 48.0209 4.22909C47.7509 4.10139 47.456 4.03541 47.1574 4.03592H21.5671L21.0517 1.11156C20.9967 0.800061 20.8337 0.517889 20.5914 0.314607C20.3491 0.111324 20.0428 -6.64594e-05 19.7265 2.97483e-08H14.3453C13.9885 2.97483e-08 13.6463 0.141738 13.394 0.394032C13.1417 0.646326 13 0.98851 13 1.34531C13 1.70211 13.1417 2.04429 13.394 2.29658C13.6463 2.54888 13.9885 2.69061 14.3453 2.69061H18.5982L22.4373 24.4493C22.4923 24.7608 22.6553 25.043 22.8976 25.2462C23.1399 25.4495 23.4461 25.5609 23.7625 25.5608H45.2874C45.6442 25.5608 45.9864 25.4191 46.2387 25.1668C46.4909 24.9145 46.6327 24.5723 46.6327 24.2155C46.6327 23.8587 46.4909 23.5166 46.2387 23.2643C45.9864 23.012 45.6442 22.8702 45.2874 22.8702H24.8908L24.4166 20.1796H44.7358C45.2023 20.179 45.6544 20.0173 46.0153 19.7217C46.3763 19.4261 46.6241 19.0149 46.7168 18.5577L49.1383 6.44991C49.1967 6.15689 49.1892 5.85456 49.1165 5.56477C49.0438 5.27497 48.9077 5.00494 48.7179 4.77416Z" fill="#262833"/>
</svg>
